# xmcd CD database file
#
# Track frame offsets:
#	150
#	13087
#	28940
#	39075
#	52427
#	63042
#	73967
#	85192
#	95272
#	107457
#	118520
#	129422
#	139780
#	148875
#	160967
#	170987
#	181490
#	193827
#	205400
#
# Disc length: 2893 seconds
#
# Revision: 1
# Processed by: cddbd v1.5.2PL0 Copyright (c) Steve Scherf et al.
# Submitted via: CDex 1.70beta1
#
DISCID=1e0b4b13
DTITLE=Bobby Bare - Folsom Prison Blues (1968) - I'm A Long Way From Home (1971)
DYEAR=2004
DGENRE=Country
TTITLE0=Folsom Prison Blues 
TTITLE1=Autumn Of My Life
TTITLE2=Abilene
TTITLE3=Blowin' In The Wind
TTITLE4=Lemon Tree
TTITLE5=Try To Remember
TTITLE6=Silence Is Golden
TTITLE7=Gotta Travel On
TTITLE8=When Am I Ever Gonna Settle Down
TTITLE9=No Sad Songs For Me
TTITLE10=Talk Me Some Sense 
TTITLE11=One Day At A Time 
TTITLE12=Let Me Tell You About Mary
TTITLE13=Long Way To Tennessee
TTITLE14=Find Out What's Happening
TTITLE15=A Little Bit Later On Down The Line
TTITLE16=I Was Coming Home To You 
TTITLE17=I Wonder Where You Are Tonight
TTITLE18=I'm A Long Way From Home
EXTD=YEAR: 2004
EXTT0=
EXTT1=
EXTT2=
EXTT3=
EXTT4=
EXTT5=
EXTT6=
EXTT7=
EXTT8=
EXTT9=
EXTT10=
EXTT11=
EXTT12=
EXTT13=
EXTT14=
EXTT15=
EXTT16=
EXTT17=
EXTT18=
PLAYORDER=
